<svg width="41" height="40" viewBox="0 0 41 40" fill="none" xmlns="http://www.w3.org/2000/svg">
<rect x="0.75" y="0.5" width="39" height="39" rx="3.5" stroke="#51AA1B"/>
<path d="M27.25 15H24.25V14C24.25 12.9391 23.8286 11.9217 23.0784 11.1716C22.3283 10.4214 21.3109 10 20.25 10C19.1891 10 18.1717 10.4214 17.4216 11.1716C16.6714 11.9217 16.25 12.9391 16.25 14V15H13.25C12.9848 15 12.7304 15.1054 12.5429 15.2929C12.3554 15.4804 12.25 15.7348 12.25 16V27C12.25 27.7956 12.5661 28.5587 13.1287 29.1213C13.6913 29.6839 14.4544 30 15.25 30H25.25C26.0456 30 26.8087 29.6839 27.3713 29.1213C27.9339 28.5587 28.25 27.7956 28.25 27V16C28.25 15.7348 28.1446 15.4804 27.9571 15.2929C27.7696 15.1054 27.5152 15 27.25 15ZM18.25 14C18.25 13.4696 18.4607 12.9609 18.8358 12.5858C19.2109 12.2107 19.7196 12 20.25 12C20.7804 12 21.2891 12.2107 21.6642 12.5858C22.0393 12.9609 22.25 13.4696 22.25 14V15H18.25V14ZM26.25 27C26.25 27.2652 26.1446 27.5196 25.9571 27.7071C25.7696 27.8946 25.5152 28 25.25 28H15.25C14.9848 28 14.7304 27.8946 14.5429 27.7071C14.3554 27.5196 14.25 27.2652 14.25 27V17H16.25V18C16.25 18.2652 16.3554 18.5196 16.5429 18.7071C16.7304 18.8946 16.9848 19 17.25 19C17.5152 19 17.7696 18.8946 17.9571 18.7071C18.1446 18.5196 18.25 18.2652 18.25 18V17H22.25V18C22.25 18.2652 22.3554 18.5196 22.5429 18.7071C22.7304 18.8946 22.9848 19 23.25 19C23.5152 19 23.7696 18.8946 23.9571 18.7071C24.1446 18.5196 24.25 18.2652 24.25 18V17H26.25V27Z" fill="#51AA1B"/>
</svg>
